<?xml version="1.0" encoding="utf-8"?>
<!-- Generator: Adobe Illustrator 28.0.0, SVG Export Plug-In . SVG Version: 6.00 Build 0)  -->
<svg version="1.1" id="Layer_1" xmlns="http://www.w3.org/2000/svg" xmlns:xlink="http://www.w3.org/1999/xlink" x="0px" y="0px"
	 viewBox="0 0 512 512" style="enable-background:new 0 0 512 512;" xml:space="preserve">
<style type="text/css">
	.st0{fill:#0066FF;}
</style>
<g>
	<path class="st0" d="M257.3,60.1h-48.4v290.1c6.4,0,12.5,0.1,18.3,0.3c5.8,0.2,11.9,0.3,18.3,0.3c5.1,0,11.5-0.2,19.3-0.7
		c7.8-0.5,15.3-1.6,22.5-3.5c7.1-1.8,13.2-4.9,18.3-9.3c5.1-4.4,7.6-10.2,7.6-17.6V120.2c0-17-5-31.3-14.9-42.8
		C288.5,65.9,274.8,60.1,257.3,60.1z"/>
	<path class="st0" d="M468.4,12H53.6C33.4,12,17,28.4,17,48.6v414.8c0,20.2,16.4,36.5,36.5,36.5h414.9c20.2,0,36.5-16.4,36.5-36.5
		V48.6C505,28.4,488.6,12,468.4,12z M392,488.4h-19.3c-7.4,0-14.5-0.3-21.4-1s-13.1-2.3-18.7-4.8c-5.5-2.5-10-6.4-13.5-11.7
		c-3.5-5.3-5.2-12.5-5.2-21.8c0-9.2-0.6-19.1-1.7-29.7c-1.2-10.6-3.6-20.5-7.3-29.7c-3.7-9.2-9.1-16.9-16.2-23.1
		c-7.1-6.2-16.9-9.3-29.4-9.3h-50.4v131.3h-77.4V53.2h125.7c10.1,0,22.8,0.9,38,2.8c15.2,1.8,29.8,5.2,43.9,10
		c14,4.8,26.1,11.6,36.3,20.4c10.1,8.8,15.2,20,15.2,33.8v199.6c0,12-3.6,22.7-10.7,32.1c-7.1,9.4-15.5,16.9-25.2,22.5
		c14.7,7.8,24.6,18.4,29.7,31.8c5.1,13.4,7.6,27.9,7.6,43.5V488.4z"/>
</g>
</svg>
