<?xml version="1.0" encoding="utf-8"?>
<!-- Generator: Adobe Illustrator 28.0.0, SVG Export Plug-In . SVG Version: 6.00 Build 0)  -->
<svg version="1.1" id="Layer_1" xmlns="http://www.w3.org/2000/svg" xmlns:xlink="http://www.w3.org/1999/xlink" x="0px" y="0px"
	 viewBox="0 0 343 67" style="enable-background:new 0 0 343 67;" xml:space="preserve">
<style type="text/css">
	.st0{enable-background:new    ;}
	.st1{fill:#0066FF;}
</style>
<g class="st0">
	<path class="st1" d="M33.6,52.1V15.7h10.5c0.8,0,1.9,0.1,3.2,0.2c1.3,0.2,2.5,0.4,3.7,0.8c1.2,0.4,2.2,1,3,1.7
		c0.8,0.7,1.3,1.7,1.3,2.8V38c0,1-0.3,1.9-0.9,2.7c-0.6,0.8-1.3,1.4-2.1,1.9c1.2,0.7,2.1,1.5,2.5,2.7c0.4,1.1,0.6,2.3,0.6,3.6v3.2
		h-1.6c-0.6,0-1.2,0-1.8-0.1c-0.6-0.1-1.1-0.2-1.6-0.4c-0.5-0.2-0.8-0.5-1.1-1c-0.3-0.4-0.4-1-0.4-1.8c0-0.8,0-1.6-0.1-2.5
		c-0.1-0.9-0.3-1.7-0.6-2.5c-0.3-0.8-0.8-1.4-1.4-1.9c-0.6-0.5-1.4-0.8-2.5-0.8h-4.2v11H33.6z M40.1,40.5c0.5,0,1,0,1.5,0
		c0.5,0,1,0,1.5,0c0.4,0,1,0,1.6-0.1c0.7,0,1.3-0.1,1.9-0.3c0.6-0.2,1.1-0.4,1.5-0.8c0.4-0.4,0.6-0.9,0.6-1.5V21.3
		c0-1.4-0.4-2.6-1.2-3.6c-0.8-1-2-1.4-3.4-1.4h-4V40.5z"/>
	<path class="st1" d="M74.4,51.5c-1,0.2-1.9,0.4-2.9,0.6s-2,0.3-3,0.3c-0.7,0-1.7,0-2.8-0.1c-1.1,0-2.2-0.2-3.2-0.5
		c-1-0.3-1.9-0.7-2.6-1.3c-0.7-0.6-1.1-1.4-1.1-2.5V37.6c0-1.2,0.4-2.1,1.3-2.7c0.9-0.7,1.9-1.1,3.1-1.5c1.2-0.3,2.4-0.5,3.7-0.6
		c1.3-0.1,2.3-0.1,3.1-0.1c0.8,0,1.7,0.1,2.4,0.4c0.8,0.3,1.5,0.7,2.1,1.2l0.1-2.9c0-0.7-0.1-1.3-0.4-2c-0.3-0.6-0.6-1.2-1-1.7
		c-0.4-0.5-1-0.9-1.6-1.2c-0.6-0.3-1.2-0.4-1.9-0.4c-0.8,0-1.4,0.1-1.9,0.4c-0.4,0.3-0.8,0.7-1.1,1.1c-0.3,0.4-0.5,0.9-0.7,1.4
		c-0.2,0.5-0.5,1-0.8,1.4c-0.3,0.4-0.8,0.8-1.3,1.1c-0.6,0.3-1.3,0.4-2.3,0.4c-0.8,0-1.8-0.1-2.7-0.3v-1.9c0-1.2,0.4-2.1,1.2-2.7
		c0.8-0.6,1.8-1,2.9-1.3c1.1-0.2,2.3-0.4,3.5-0.4c1.2,0,2.2,0,3,0c1.1,0,2.3,0,3.7,0.1c1.3,0.1,2.6,0.3,3.7,0.7
		c1.2,0.4,2.1,1,2.9,1.8c0.8,0.8,1.2,2,1.2,3.5v20.5h-6.4L74.4,51.5z M69.8,51.8c1.7,0,2.9-0.5,3.7-1.6c0.8-1.1,1.1-2.4,1.1-3.9v-8
		c0-1.3-0.4-2.5-1.1-3.6c-0.8-1-1.9-1.5-3.3-1.5c-1.3,0-2.4,0.3-3.3,0.9c-0.9,0.6-1.4,1.6-1.4,3v11c0,1.6,0.4,2.6,1.1,3.1
		C67.2,51.6,68.3,51.8,69.8,51.8z"/>
	<path class="st1" d="M83.9,52.1l14-25.9H84v-0.6h21.6L91.5,51.5h12.9v0.6H83.9z"/>
	<path class="st1" d="M108.2,19.6c0-1,0.4-2,1.2-2.7c0.8-0.8,1.7-1.2,2.7-1.2c1,0,2,0.4,2.8,1.2c0.8,0.8,1.2,1.7,1.2,2.8
		c0,1.1-0.4,2-1.2,2.7c-0.8,0.8-1.7,1.1-2.8,1.1c-1,0-2-0.4-2.7-1.2C108.6,21.6,108.2,20.6,108.2,19.6z M109,52.1V25.6h6.4v26.5H109
		z"/>
	<path class="st1" d="M130.2,51.5c0.9,0,1.6-0.2,2.1-0.5c0.4-0.3,0.8-0.8,1-1.3c0.2-0.5,0.4-1.1,0.5-1.7c0.1-0.6,0.4-1.2,0.7-1.7
		c0.3-0.5,0.8-0.9,1.4-1.3c0.6-0.3,1.5-0.5,2.7-0.5c0.8,0,1.6,0.1,2.4,0.2V45c0,1.3-0.4,2.5-1.1,3.4c-0.7,0.9-1.6,1.6-2.7,2.2
		c-1.1,0.5-2.3,0.9-3.5,1.2s-2.4,0.3-3.5,0.3c-1,0-2.1-0.1-3.3-0.3c-1.2-0.2-2.4-0.6-3.4-1.1c-1.1-0.5-2-1.2-2.7-2
		c-0.7-0.8-1.1-1.9-1.1-3.1V32c0-1.2,0.4-2.3,1.1-3.1c0.8-0.8,1.7-1.5,2.8-2c1.1-0.5,2.3-0.9,3.5-1.1c1.3-0.2,2.4-0.3,3.3-0.3
		c0.9,0,2,0.1,3.2,0.3c1.2,0.2,2.4,0.6,3.5,1.1c1.1,0.5,2,1.2,2.8,2c0.8,0.8,1.2,1.8,1.2,3v10.8H126l-0.1,3.1c0,0.7,0.1,1.3,0.2,2
		c0.1,0.7,0.4,1.3,0.7,1.8c0.3,0.5,0.8,1,1.3,1.3C128.7,51.3,129.4,51.5,130.2,51.5z M134.7,41.8V31.4c0-1.4-0.3-2.6-0.9-3.7
		c-0.6-1.1-1.7-1.6-3.3-1.6c-0.8,0-1.5,0.1-2.1,0.4c-0.6,0.3-1,0.7-1.4,1.2c-0.3,0.5-0.6,1.1-0.7,1.7c-0.1,0.7-0.2,1.3-0.2,2.1v10.3
		H134.7z"/>
	<path class="st1" d="M144.7,52.1V15.7h6.4V28c0.8-1.1,1.6-1.8,2.6-2.1c1-0.3,2.1-0.4,3.3-0.4c1.2,0,2.4,0,3.5,0.1
		c1.1,0.1,2.1,0.3,3,0.8c0.9,0.4,1.6,1,2.1,1.9c0.5,0.8,0.8,2,0.8,3.6v20.2h-6.4V31.9c0-0.7,0-1.3-0.1-2c-0.1-0.7-0.2-1.3-0.4-1.9
		c-0.2-0.6-0.6-1-1.1-1.4c-0.5-0.4-1.2-0.5-2.1-0.5c-0.7,0-1.3,0.1-2,0.3c-0.6,0.2-1.2,0.5-1.6,0.9c-0.5,0.4-0.9,0.9-1.2,1.4
		c-0.3,0.6-0.4,1.2-0.4,1.9v21.4H144.7z"/>
	<path class="st1" d="M186.6,52.1V15.7h4l9.2,21.3l9.5-21.3h4.2v36.4h-6.9v-29l-10.1,22.9l-9.4-23v29H186.6z"/>
	<path class="st1" d="M216.9,19.6c0-1,0.4-2,1.2-2.7c0.8-0.8,1.7-1.2,2.7-1.2c1,0,2,0.4,2.8,1.2c0.8,0.8,1.2,1.7,1.2,2.8
		c0,1.1-0.4,2-1.2,2.7c-0.8,0.8-1.7,1.1-2.8,1.1c-1,0-2-0.4-2.7-1.2C217.3,21.6,216.9,20.6,216.9,19.6z M217.8,52.1V25.6h6.4v26.5
		H217.8z"/>
	<path class="st1" d="M228.4,52.1V28l6.5-2.4V28c0.5-0.9,1.3-1.5,2.3-1.9c1-0.4,2-0.6,3-0.6c0.9,0,2,0.1,3.1,0.2
		c1.1,0.1,2.2,0.4,3.2,0.8c1,0.4,1.8,0.9,2.5,1.7c0.7,0.7,1,1.7,1,2.9v21h-6.6v-21c0-0.6,0-1.2-0.1-1.8c-0.1-0.6-0.2-1.1-0.4-1.6
		c-0.2-0.5-0.6-0.9-1-1.2c-0.4-0.3-1-0.5-1.7-0.5c-1.5,0-2.8,0.5-3.8,1.4c-1,0.9-1.5,2.1-1.5,3.7v21L228.4,52.1z"/>
	<path class="st1" d="M269.1,51.5c-1,0.2-1.9,0.4-2.9,0.6s-2,0.3-3,0.3c-0.7,0-1.7,0-2.8-0.1c-1.1,0-2.2-0.2-3.2-0.5
		c-1-0.3-1.9-0.7-2.6-1.3c-0.7-0.6-1.1-1.4-1.1-2.5V37.6c0-1.2,0.4-2.1,1.3-2.7c0.9-0.7,1.9-1.1,3.1-1.5c1.2-0.3,2.4-0.5,3.7-0.6
		c1.3-0.1,2.3-0.1,3.1-0.1c0.8,0,1.7,0.1,2.4,0.4s1.5,0.7,2.1,1.2l0.1-2.9c0-0.7-0.1-1.3-0.4-2c-0.3-0.6-0.6-1.2-1-1.7
		c-0.4-0.5-1-0.9-1.6-1.2c-0.6-0.3-1.2-0.4-1.9-0.4c-0.8,0-1.4,0.1-1.9,0.4c-0.4,0.3-0.8,0.7-1.1,1.1c-0.3,0.4-0.5,0.9-0.7,1.4
		s-0.5,1-0.8,1.4c-0.3,0.4-0.8,0.8-1.3,1.1c-0.6,0.3-1.3,0.4-2.3,0.4c-0.8,0-1.8-0.1-2.7-0.3v-1.9c0-1.2,0.4-2.1,1.2-2.7
		c0.8-0.6,1.8-1,2.9-1.3c1.1-0.2,2.3-0.4,3.5-0.4c1.2,0,2.2,0,3,0c1.1,0,2.3,0,3.7,0.1c1.3,0.1,2.6,0.3,3.7,0.7
		c1.2,0.4,2.1,1,2.9,1.8c0.8,0.8,1.2,2,1.2,3.5v20.5h-6.4L269.1,51.5z M264.4,51.8c1.7,0,2.9-0.5,3.7-1.6c0.8-1.1,1.1-2.4,1.1-3.9
		v-8c0-1.3-0.4-2.5-1.1-3.6c-0.8-1-1.9-1.5-3.3-1.5c-1.3,0-2.4,0.3-3.3,0.9c-0.9,0.6-1.4,1.6-1.4,3v11c0,1.6,0.4,2.6,1.1,3.1
		C261.8,51.6,262.9,51.8,264.4,51.8z"/>
	<path class="st1" d="M289.8,51.5c0.9,0,1.6-0.2,2.1-0.5c0.4-0.3,0.8-0.8,1-1.3s0.4-1.1,0.5-1.7s0.4-1.2,0.7-1.7
		c0.3-0.5,0.8-0.9,1.4-1.3c0.6-0.3,1.5-0.5,2.7-0.5c0.8,0,1.6,0.1,2.4,0.2V45c0,1.3-0.4,2.5-1.1,3.4c-0.7,0.9-1.6,1.6-2.7,2.2
		c-1.1,0.5-2.3,0.9-3.5,1.2c-1.3,0.2-2.4,0.3-3.5,0.3c-1,0-2.1-0.1-3.3-0.3c-1.2-0.2-2.4-0.6-3.4-1.1c-1.1-0.5-2-1.2-2.7-2
		c-0.7-0.8-1.1-1.9-1.1-3.1V32c0-1.2,0.4-2.3,1.1-3.1c0.8-0.8,1.7-1.5,2.8-2c1.1-0.5,2.3-0.9,3.5-1.1c1.3-0.2,2.4-0.3,3.3-0.3
		c0.9,0,2,0.1,3.2,0.3s2.4,0.6,3.5,1.1c1.1,0.5,2,1.2,2.8,2c0.8,0.8,1.2,1.8,1.2,3v10.8h-15.1l-0.1,3.1c0,0.7,0.1,1.3,0.2,2
		c0.1,0.7,0.4,1.3,0.7,1.8c0.3,0.5,0.8,1,1.3,1.3C288.3,51.3,289,51.5,289.8,51.5z M294.2,41.8V31.4c0-1.4-0.3-2.6-0.9-3.7
		c-0.6-1.1-1.7-1.6-3.3-1.6c-0.8,0-1.5,0.1-2.1,0.4c-0.6,0.3-1,0.7-1.4,1.2c-0.3,0.5-0.6,1.1-0.7,1.7c-0.1,0.7-0.2,1.3-0.2,2.1v10.3
		H294.2z"/>
	<path class="st1" d="M304.2,19.6c0-1,0.4-2,1.2-2.7c0.8-0.8,1.7-1.2,2.7-1.2c1,0,2,0.4,2.8,1.2c0.8,0.8,1.2,1.7,1.2,2.8
		c0,1.1-0.4,2-1.2,2.7c-0.8,0.8-1.7,1.1-2.8,1.1c-1,0-2-0.4-2.7-1.2C304.5,21.6,304.2,20.6,304.2,19.6z M305,52.1V25.6h6.4v26.5H305
		z"/>
</g>
</svg>
